<svg id="Layer_1" viewBox="0 0 512 512" xmlns="http://www.w3.org/2000/svg"><path d="M257.65,256.1a52.48,52.48,0,1,0-52.47-52.48A52.54,52.54,0,0,0,257.65,256.1Zm0-94.65a42.17,42.17,0,1,1-42.17,42.17A42.22,42.22,0,0,1,257.65,161.45Z"></path><path d="M256,208.77h21.59a5.15,5.15,0,1,0,0-10.3H261.15V177a5.15,5.15,0,1,0-10.3,0v26.58A5.14,5.14,0,0,0,256,208.77Z"></path><path d="M485.6,190.61H346.68V121.4a5.14,5.14,0,0,0-5.15-5.15H262.8V86.8c5.43-1.71,17-4.3,26.6.91a51.34,51.34,0,0,0,24.21,6.35c9.94,0,18.64-3.36,23-9.85a5.19,5.19,0,0,0,.88-2.88V34.16a5.16,5.16,0,0,0-9.43-2.89c-4.25,6.3-19.92,7.78-33.76.22-17.4-9.49-37.91-.57-38.77-.18A5.14,5.14,0,0,0,252.5,36v80.23h-82a5.15,5.15,0,0,0-5.15,5.15v69.21H26.4a5.16,5.16,0,0,0-5.15,5.15v284a5.15,5.15,0,0,0,5.15,5.15H485.6a5.15,5.15,0,0,0,5.15-5.15V195.76A5.16,5.16,0,0,0,485.6,190.61Zm-222.8-151c5.43-1.7,17-4.28,26.6.92,12.81,7,27.62,8.11,37.81,3.85V79.52c-5.23,5.37-19.87,6.24-32.88-.86a37.6,37.6,0,0,0-18.16-4.35,54.61,54.61,0,0,0-13.37,1.76ZM31.55,200.92H165.32V474.56H31.55Zm144.08-5.16V126.55H336.38v348H302.67v-119a5.14,5.14,0,0,0-5.15-5.15h-83a5.15,5.15,0,0,0-5.15,5.15v119h-33.7Zm44,278.8V360.72h72.73V474.56Zm260.81,0H346.68V200.92H480.45Z"></path><path d="M374.33,275.19a5.14,5.14,0,0,0,5.15-5.15V240.15a5.15,5.15,0,0,0-10.3,0V270A5.14,5.14,0,0,0,374.33,275.19Z"></path><path d="M413.56,275.19a5.15,5.15,0,0,0,5.16-5.15V240.15a5.16,5.16,0,0,0-10.31,0V270A5.15,5.15,0,0,0,413.56,275.19Z"></path><path d="M452.8,275.19A5.14,5.14,0,0,0,458,270V240.15a5.15,5.15,0,1,0-10.3,0V270A5.14,5.14,0,0,0,452.8,275.19Z"></path><path d="M374.33,354.89a5.15,5.15,0,0,0,5.15-5.15v-29.9a5.15,5.15,0,0,0-10.3,0v29.9A5.15,5.15,0,0,0,374.33,354.89Z"></path><path d="M413.56,354.89a5.16,5.16,0,0,0,5.16-5.15v-29.9a5.16,5.16,0,0,0-10.31,0v29.9A5.16,5.16,0,0,0,413.56,354.89Z"></path><path d="M452.8,354.89a5.15,5.15,0,0,0,5.15-5.15v-29.9a5.15,5.15,0,1,0-10.3,0v29.9A5.15,5.15,0,0,0,452.8,354.89Z"></path><path d="M374.33,434.58a5.15,5.15,0,0,0,5.15-5.15v-29.9a5.15,5.15,0,0,0-10.3,0v29.9A5.15,5.15,0,0,0,374.33,434.58Z"></path><path d="M413.56,434.58a5.16,5.16,0,0,0,5.16-5.15v-29.9a5.16,5.16,0,0,0-10.31,0v29.9A5.16,5.16,0,0,0,413.56,434.58Z"></path><path d="M452.8,434.58a5.15,5.15,0,0,0,5.15-5.15v-29.9a5.15,5.15,0,0,0-10.3,0v29.9A5.15,5.15,0,0,0,452.8,434.58Z"></path><path d="M59.2,235a5.15,5.15,0,0,0-5.15,5.15V270a5.16,5.16,0,0,0,10.31,0V240.15A5.15,5.15,0,0,0,59.2,235Z"></path><path d="M98.44,235a5.15,5.15,0,0,0-5.16,5.15V270a5.16,5.16,0,0,0,10.31,0V240.15A5.15,5.15,0,0,0,98.44,235Z"></path><path d="M137.67,235a5.14,5.14,0,0,0-5.15,5.15V270a5.15,5.15,0,0,0,10.3,0V240.15A5.14,5.14,0,0,0,137.67,235Z"></path><path d="M59.2,314.69a5.16,5.16,0,0,0-5.15,5.15v29.9a5.16,5.16,0,0,0,10.31,0v-29.9A5.16,5.16,0,0,0,59.2,314.69Z"></path><path d="M98.44,314.69a5.16,5.16,0,0,0-5.16,5.15v29.9a5.16,5.16,0,0,0,10.31,0v-29.9A5.16,5.16,0,0,0,98.44,314.69Z"></path><path d="M137.67,314.69a5.15,5.15,0,0,0-5.15,5.15v29.9a5.15,5.15,0,0,0,10.3,0v-29.9A5.15,5.15,0,0,0,137.67,314.69Z"></path><path d="M59.2,394.38a5.16,5.16,0,0,0-5.15,5.15v29.9a5.16,5.16,0,0,0,10.31,0v-29.9A5.16,5.16,0,0,0,59.2,394.38Z"></path><path d="M98.44,394.38a5.16,5.16,0,0,0-5.16,5.15v29.9a5.16,5.16,0,0,0,10.31,0v-29.9A5.16,5.16,0,0,0,98.44,394.38Z"></path><path d="M137.67,394.38a5.15,5.15,0,0,0-5.15,5.15v29.9a5.15,5.15,0,0,0,10.3,0v-29.9A5.15,5.15,0,0,0,137.67,394.38Z"></path></svg>