<svg viewBox="0 0 90.77 97.75" xmlns="http://www.w3.org/2000/svg"><title></title><g id="Layer_2"><g id="Layer_1-2"><path d="M61.56,10.5,58.7,6.74,61.56,3a1.86,1.86,0,0,0-1.48-3H45.42a1.89,1.89,0,0,0-1.9,1.86V18.39h3.72V13.5H60.08a1.87,1.87,0,0,0,1.48-3Z"></path><path d="M2.76,58.65A2.75,2.75,0,0,0,0,61.38V97.75H23.51V58.65ZM8.84,87.51a1.86,1.86,0,0,1-3.72,0v-4a1.86,1.86,0,0,1,3.72,0Zm0-15.58a1.86,1.86,0,0,1-3.72,0v-4a1.86,1.86,0,0,1,3.72,0Zm9.54,15.58a1.86,1.86,0,0,1-3.72,0v-4a1.86,1.86,0,0,1,3.72,0Zm0-15.58a1.86,1.86,0,1,1-3.72,0v-4a1.86,1.86,0,0,1,3.72,0Z"></path><path d="M45.08,32.7,27.23,47.89V97.75h8.15V78.36a1.75,1.75,0,0,1,1.7-1.79h16.1a1.71,1.71,0,0,1,1.75,1.67s0,.08,0,.12V97.75h7.91V47.87Zm8.09,33.4H37.07a1.86,1.86,0,0,1,0-3.72H53.17a1.86,1.86,0,0,1,0,3.72Z"></path><path d="M88,58.65H66.56v39.1h24.2V61.42A2.75,2.75,0,0,0,88,58.65ZM76.1,87.51a1.86,1.86,0,0,1-3.72,0v-4a1.86,1.86,0,0,1,3.72,0Zm0-15.58a1.86,1.86,0,1,1-3.72,0v-4a1.86,1.86,0,0,1,3.72,0Zm9.31,15.58a1.86,1.86,0,0,1-3.72,0v-4a1.86,1.86,0,0,1,3.72,0Zm0-15.58a1.86,1.86,0,0,1-3.72,0v-4a1.86,1.86,0,0,1,3.72,0Z"></path><path d="M45.17,20.91,18.53,43.72l3.37,3.92L44,28.83a1.86,1.86,0,0,1,2.42,0l22,18.81,3.44-3.94Z"></path><rect height="17.46" width="12.1" x="39.1" y="80.29"></rect></g></g></svg>